<?xml version="1.0" encoding="utf-8"?>
<!-- Generator: Adobe Illustrator 28.1.0, SVG Export Plug-In . SVG Version: 6.00 Build 0)  -->
<svg version="1.1" xmlns="http://www.w3.org/2000/svg" xmlns:xlink="http://www.w3.org/1999/xlink" x="0px" y="0px"
	 viewBox="0 0 39.33 39.33" style="enable-background:new 0 0 39.33 39.33;" xml:space="preserve">
<style type="text/css">
	.st0{display:none;}
	.st1{display:inline;}
	.st2{fill-rule:evenodd;clip-rule:evenodd;fill:#11193F;}
	.st3{display:inline;fill-rule:evenodd;clip-rule:evenodd;fill:#11193F;}
</style>
<g id="Layer_1" class="st0">
	<g class="st1">
		<circle class="st2" cx="19.67" cy="16.05" r="3.73"/>
		<path class="st2" d="M19.67,0.29c-10.7,0-19.38,8.68-19.38,19.38c0,10.7,8.68,19.38,19.38,19.38s19.38-8.68,19.38-19.38
			C39.05,8.96,30.37,0.29,19.67,0.29z M21.53,28.6c-0.34,0.44-1.67,1.91-1.86,2.26h0c-0.19-0.35-1.52-1.82-1.86-2.26
			c-3.36-3.94-6.23-7.15-6.28-12.03c0-0.07,0-0.14,0-0.21c0-0.47,0.05-0.93,0.13-1.38c0.65-3.65,3.67-6.37,7.72-6.49
			c0.01,0,0.01,0,0.02,0c0.09,0,0.18,0,0.26,0h0h0c0.09,0,0.18,0,0.26,0c0.01,0,0.01,0,0.02,0c4.06,0.12,7.07,2.84,7.72,6.49
			c0.08,0.45,0.13,0.91,0.13,1.38c0,0.07,0,0.14,0,0.21C27.76,21.45,24.88,24.66,21.53,28.6z"/>
	</g>
</g>
<g id="Layer_2" class="st0">
	<path class="st3" d="M19.67,0.29c-10.7,0-19.38,8.68-19.38,19.38c0,10.7,8.68,19.38,19.38,19.38c10.7,0,19.38-8.68,19.38-19.38
		C39.05,8.96,30.37,0.29,19.67,0.29z M28.65,13.26l-8.91,7.47c-0.01,0.01-0.04,0.01-0.05,0l-8.91-7.47H28.65z M9.62,14.04l6.48,5.44
		l-6.48,5.44V14.04z M10.21,26.07l6.88-5.77l2.22,1.86c0.19,0.16,0.5,0.16,0.69,0l2.23-1.87l6.88,5.77H10.21z M29.71,24.91
		l-6.48-5.44l6.48-5.44V24.91z"/>
</g>
<g id="Layer_3">
	<path class="st2" d="M19.67,0.29c-10.7,0-19.38,8.68-19.38,19.38c0,10.7,8.68,19.38,19.38,19.38c10.7,0,19.38-8.68,19.38-19.38
		C39.05,8.96,30.37,0.29,19.67,0.29z M23.33,29.13c-3.48-0.33-7.04-2.9-10.67-7.73c-1.98-2.97-4.01-8.1-0.37-10.64
		c0.86-0.6,3.35-1.14,3.67,0.05c0.09,0.31,0.47,1.69,1.14,4.13c0.15,0.89-0.25,1.65-1.19,2.28c-0.48,0.35-0.63,0.75-0.43,1.2
		c0.66,1.1,3.53,4.67,5.17,5.55c0.54,0.29,0.82,0.21,1.28-0.21c0.09-0.09,0.19-0.19,0.28-0.3c0.6-0.74,1.18-1.05,1.74-0.96
		c2.91,0.68,4.5,1.2,4.77,1.58c0.16,0.25,0.27,0.6,0.31,1.05C29.36,28.41,26.09,29.61,23.33,29.13z"/>
</g>
</svg>
